<svg xmlns="http://www.w3.org/2000/svg" viewBox="0 0 373.07 71.53"><defs><style>.cls-1{fill:#fff;}</style></defs><g id="Layer_2" data-name="Layer 2"><g id="Layer_1-2" data-name="Layer 1"><path class="cls-1" d="M71.65,61.16a.43.43,0,0,0-.19-.21l-.19-.05c-.94-.24-1.88-.45-2.83-.64h0q.18-1.57.45-3.21l.15-.89.09-.48v0c1-.27,2-.51,2.92-.79,1.65-.43,4-1,5.68-1.41L79.46,53c.38-.09.77-.18,1.16-.29,1.25,1.46,3.81,2.48,6.76,2.49,4.19,0,7.6-2,7.61-4.47s-3.37-4.52-7.57-4.54a10.45,10.45,0,0,0-5.72,1.51,3.76,3.76,0,0,0-1.89,2.8L77.29,51c-2.49.39-4.94.86-7.4,1.38.21-.81.44-1.58.67-2.32.57-1.82,1.18-3.5,1.78-5.28C66.18,39,57.42,39.69,49.82,37.52c5.84,1.24,12.26,1.13,17.88,3.15a18.73,18.73,0,0,1,6.15,3.58C82,42.32,94.13,38.4,92.22,27.89a10.84,10.84,0,0,0-11-9.29,20.88,20.88,0,0,1-7.29.72,21.06,21.06,0,0,1-5.62-1.22,27.07,27.07,0,0,0,8.52.38,26.93,26.93,0,0,0,5.33-1.17C80.79,3,60.37.31,50.19,7.14c-6.36,4-6,9.75-15.36,11.08,6.45-1,9.48-6.69,13.06-11.23-37.6-23.67-62.16,19.68-22.72,28.3a38.29,38.29,0,0,1,20.4.54,37.16,37.16,0,0,0-20.06.81c-.07,2-.2,4.68-.43,7.82-.07,1-.15,2-.25,3.1v0l0,0a56.31,56.31,0,0,0-6-2.78c-1.81-.7-2.06-1.35-2.18-2.87,0-.44.3-.91.28-1.31a2.79,2.79,0,0,0-.28-1.35,1.59,1.59,0,0,0-.95-.69C12.12,37.5,8.23,36.24,4.7,35.25a1.3,1.3,0,0,0-1.63.45A12.86,12.86,0,0,0,.32,41.18,13,13,0,0,0,.34,47a1.39,1.39,0,0,0,1.23,1.2c3.52.91,7.53,1.79,11,2.62a1.44,1.44,0,0,0,1.9-.92c.24-.45.18-1.27.44-1.7a4.11,4.11,0,0,1,.85-1.1,2,2,0,0,1,2.2-.06,45.08,45.08,0,0,1,6.49,3.48l0,0,0,.28c-.08.8-.18,1.55-.28,2.25-.22,1.62-.45,2.95-.66,4h-.05a38.91,38.91,0,0,0-9.82,1.15c-3.48-3.62-9.93-2.07-12.63,1.79a.15.15,0,0,0,.18.23C3.82,59.55,6.44,58.71,9,58c.73-.15.88,1.28.16,1.42C6.63,60.16,4,61,1.41,61.74c-.95.31-.41,1.45-.17,2.09.59,1.33,7.11-1.78,8.72-1.9.46-.13.71.18.84.55.46,1.28-6.78,2.39-8,3.06-.17,0-.18.24,0,.29,4.37,1.73,10.71-.42,11.45-5.51a26.65,26.65,0,0,1,8.86-.8h0c0,.16-.06.32-.08.45l-.06.41c-.08.5-.15.87-.15.88-.13.81.75,1.67,1.87,2.43a23.13,23.13,0,0,0,3.46,1.84c.38.17.62.26.62.26A62.62,62.62,0,0,0,41,68.87a62.22,62.22,0,0,0,12,.59,52.77,52.77,0,0,1-23.48-2.38A55,55,0,0,0,38.34,70a57.31,57.31,0,0,0,23.84.53h0l1-.19,1.38-.3c1.18-.26,2.26-.54,3.26-.82h0c0-.63,0-1.26,0-1.92,0-1.18.12-2.41.23-3.68.36.05.71.1,1.07.17s.11.77.57.88l.15,0h0c.32.11.74.22.89-.17,0,0,0,0,0,0C70.84,63.77,71.94,61.88,71.65,61.16Zm13.68-8.92a7.87,7.87,0,0,0,1.28.17,7.7,7.7,0,0,0,1.27,0,9,9,0,0,0,1.26-.22,9.2,9.2,0,0,0,1.22-.41,11.83,11.83,0,0,0,2.32-1.33,5.72,5.72,0,0,1-2,2,6.45,6.45,0,0,1-1.3.61A6.93,6.93,0,0,1,88,53.3a6.68,6.68,0,0,1-1.46,0,5.54,5.54,0,0,1-1.39-.34,5.89,5.89,0,0,1-2.34-1.53A11.25,11.25,0,0,0,85.33,52.24ZM10.78,47.73a.63.63,0,0,1-.86.42c-2.3-.59-4.85-1.26-7.15-1.88a.67.67,0,0,1-.57-.8,2,2,0,0,1,.16-.63.63.63,0,0,1,.86-.43c2.3.59,4.85,1.26,7.15,1.88a.66.66,0,0,1,.56.8A2,2,0,0,1,10.78,47.73Zm.83-3.43a.63.63,0,0,1-.86.42c-2.31-.59-4.86-1.26-7.15-1.88A.66.66,0,0,1,3,42a2.23,2.23,0,0,1,.15-.63A.64.64,0,0,1,4.05,41c2.3.59,4.85,1.26,7.15,1.88a.67.67,0,0,1,.56.8A2,2,0,0,1,11.61,44.3Zm.83-3.43a.64.64,0,0,1-.87.42C9.27,40.7,6.73,40,4.43,39.41a.66.66,0,0,1-.57-.8A2.23,2.23,0,0,1,4,38a.64.64,0,0,1,.87-.43L12,39.43a.67.67,0,0,1,.57.81A2,2,0,0,1,12.44,40.87ZM65.33,67.51c-.37-.28-.77-.58-1.22-.89l-.41-.29a42.56,42.56,0,0,0-5.85-3.39l-1.2-.56L55.81,62a44.12,44.12,0,0,0-4.52-1.59,41.93,41.93,0,0,0-4.84-1.1,38.65,38.65,0,0,0-4-.46c-.87-.06-1.73-.1-2.56-.1h0c-.4,0-.81,0-1.2,0-.67,0-1.33,0-2,.09s-1.17.08-1.73.14h0a42.31,42.31,0,0,0-10.53,2.5c.86-.44,1.93-.95,3.2-1.46a35.87,35.87,0,0,1,6.5-1.89l1.3-.22,1.06-.15c.75-.09,1.52-.15,2.32-.19l1,0h.82a36.7,36.7,0,0,1,11,1.77l1,.32a36,36,0,0,1,4.24,1.79v0l0,0c1,.49,1.89,1,2.74,1.53h0a38.76,38.76,0,0,1,5.79,4.36c.45.41.85.79,1.21,1.15C66.22,68.21,65.8,67.87,65.33,67.51Zm4.54-4.67h0l0,0h0a.6.6,0,0,1-.48,0,.63.63,0,0,1-.34-.22l0,0a.7.7,0,0,1,.21-.92l0,0a.61.61,0,0,1,.5-.05.63.63,0,0,1,.39.28l0,0v0s0,0,0,0A.74.74,0,0,1,69.87,62.84Z"/><path class="cls-1" d="M72.94,61.32c-.7,2.36-1.47,4.7-2.14,7.07,2.35.84,8.37,1.16,10.14,1.35,6.91.87,13.64,1,18-2.37C90.38,64.82,81.65,63.26,72.94,61.32Z"/><path class="cls-1" d="M142.69,57.05a18.24,18.24,0,0,1-14.28-6.54,22.41,22.41,0,0,1-5.75-15.3q0-9,5.37-14.86t14.07-5.87A21.21,21.21,0,0,1,154,17.78q5,3.3,5,7.85A4.45,4.45,0,0,1,157.73,29a4.85,4.85,0,0,1-3.54,1.29,5.73,5.73,0,0,1-3.56-1.2,10.25,10.25,0,0,1-2.6-2.89L146,22.74a11.38,11.38,0,0,0-2.54-2.92A5.33,5.33,0,0,0,140,18.63a6.09,6.09,0,0,0-5,2.74,12,12,0,0,0-2.07,7.42q0,8.24,4,13.52t9.16,5.28a10.27,10.27,0,0,0,3.54-.58,9.19,9.19,0,0,0,2.86-1.67,16.68,16.68,0,0,0,1.93-1.89c.44-.55,1-1.23,1.54-2.05a1.87,1.87,0,0,1,2.05-.67,1.51,1.51,0,0,1,1.17,1.72,15,15,0,0,1-4.47,10.34Q150.46,57.05,142.69,57.05Z"/><path class="cls-1" d="M177.9,57.05a16.65,16.65,0,0,1-11.47-4.17,13.43,13.43,0,0,1-4.7-10.49A13.26,13.26,0,0,1,166.4,32a16.23,16.23,0,0,1,11.09-4.12A16.48,16.48,0,0,1,188.82,32a13.42,13.42,0,0,1,4.67,10.51,13.4,13.4,0,0,1-4.55,10.42A15.87,15.87,0,0,1,177.9,57.05Zm1.23-2.86q3.74,0,3.74-7.18a32.82,32.82,0,0,0-.73-6.25,24.79,24.79,0,0,0-2.46-6.83c-1.15-2.14-2.42-3.22-3.82-3.22a3,3,0,0,0-2.92,1.81,13.08,13.08,0,0,0-.88,5.49,26.7,26.7,0,0,0,.47,4.56,45,45,0,0,0,1.28,5.28,14.06,14.06,0,0,0,2.25,4.5A4,4,0,0,0,179.13,54.19Z"/><path class="cls-1" d="M216.21,57.05a18.26,18.26,0,0,1-14.28-6.54,22.46,22.46,0,0,1-5.75-15.3q0-9,5.37-14.86t14.08-5.87a21.2,21.2,0,0,1,11.91,3.3q5,3.3,5,7.85A4.45,4.45,0,0,1,231.25,29a4.85,4.85,0,0,1-3.54,1.29,5.73,5.73,0,0,1-3.56-1.2,10.25,10.25,0,0,1-2.6-2.89l-2.07-3.42a11.38,11.38,0,0,0-2.54-2.92,5.33,5.33,0,0,0-3.42-1.19,6.1,6.1,0,0,0-5,2.74,12,12,0,0,0-2.07,7.42q0,8.24,4,13.52t9.17,5.28a10.25,10.25,0,0,0,3.53-.58A9.19,9.19,0,0,0,226,45.34a16.68,16.68,0,0,0,1.93-1.89c.45-.55,1-1.23,1.55-2.05a1.85,1.85,0,0,1,2-.67,1.5,1.5,0,0,1,1.17,1.72,15,15,0,0,1-4.47,10.34Q224,57.05,216.21,57.05Z"/><path class="cls-1" d="M271.75,50.1a8.27,8.27,0,0,0,2,2.89c.91.88,1.37,1.59,1.37,2.13v.24c0,.74-.46,1.11-1.4,1.11H258.61q-1.35,0-1.35-1.11v-.24a2,2,0,0,1,.85-1.37,8.81,8.81,0,0,0,1.46-1.6,2.13,2.13,0,0,0,.2-2l-1.28-3.62H243.66l-1.29,3.62a2.16,2.16,0,0,0,.21,2,8.46,8.46,0,0,0,1.46,1.6,2,2,0,0,1,.84,1.37v.24c0,.74-.46,1.11-1.4,1.11h-8.64c-.94,0-1.4-.37-1.4-1.11v-.24c0-.5.45-1.2,1.37-2.1a8.56,8.56,0,0,0,2-2.92l10.92-28.26a2.3,2.3,0,0,0-.14-2.05,12.93,12.93,0,0,0-1.29-2,2.81,2.81,0,0,1-.73-1.46v-.24c0-.73.45-1.1,1.35-1.1h7.47a4.09,4.09,0,0,1,4,2.8Zm-26.52-8h11.68l-5.84-16.29Z"/><path class="cls-1" d="M278.46,56.47c-.93,0-1.4-.37-1.4-1.11v-.24A4.26,4.26,0,0,1,278.23,53a4.53,4.53,0,0,0,1.17-2.89V21.37a4.55,4.55,0,0,0-1.17-2.89,4.18,4.18,0,0,1-1.17-2.13v-.24c0-.73.47-1.1,1.4-1.1h12.73c.94,0,1.4.37,1.4,1.1v.24a4.05,4.05,0,0,1-1.25,2.13,4.38,4.38,0,0,0-1.26,2.89L290,33.28h15.36l.06-11.91a4.62,4.62,0,0,0-1.14-2.89,4.22,4.22,0,0,1-1.14-2.13v-.24c0-.73.45-1.1,1.35-1.1h12.73c.93,0,1.4.37,1.4,1.1v.24c0,.47-.44,1.18-1.31,2.13A4.29,4.29,0,0,0,316,21.37V50.1A4.27,4.27,0,0,0,317.33,53c.87,1,1.31,1.67,1.31,2.13v.24c0,.74-.47,1.11-1.4,1.11H304.51q-1.35,0-1.35-1.11v-.24A4.3,4.3,0,0,1,304.3,53a4.6,4.6,0,0,0,1.14-2.89l-.06-12.26h-15.3L290,50.1A4.31,4.31,0,0,0,291.31,53a4.1,4.1,0,0,1,1.28,2.13v.24c0,.74-.46,1.11-1.4,1.11Z"/><path class="cls-1" d="M370.67,50A7.33,7.33,0,0,0,372,52.93a4.46,4.46,0,0,1,1.06,2.19v.24q0,1.11-1.41,1.11H359.52c-.94,0-1.4-.37-1.4-1.11v-.24a4.59,4.59,0,0,1,1.16-2.07,3.65,3.65,0,0,0,.88-3l-3.5-20.38-8.94,25.06a2.14,2.14,0,0,1-2.1,1.69,2.54,2.54,0,0,1-2.45-1.64L333,28.73,329.79,50a3.77,3.77,0,0,0,.94,3,4.4,4.4,0,0,1,1.16,2.1v.24c0,.74-.46,1.11-1.4,1.11h-7.24c-.93,0-1.4-.37-1.4-1.11v-.24a4.36,4.36,0,0,1,1.08-2.19A6.4,6.4,0,0,0,324.24,50l4.44-28.61a3.61,3.61,0,0,0-1-3,4.23,4.23,0,0,1-1.25-2.1v-.24c0-.73.44-1.1,1.34-1.1h7.71a3,3,0,0,1,3.15,2.1l8.47,24.76,8.17-24.65a3,3,0,0,1,3-2.21h7.94c.9,0,1.35.37,1.35,1.1v.24a4.61,4.61,0,0,1-1.29,2.1,3.62,3.62,0,0,0-1,3.1Z"/></g></g></svg>